<?xml version="1.0" encoding="UTF-8"?>
<svg width="24px" height="24px" viewBox="0 0 24 24" version="1.1" xmlns="http://www.w3.org/2000/svg">
    <g stroke="none" stroke-width="1" fill="none" fill-rule="evenodd">
        <path d="M12,2 C13.1045695,2 14,2.8954305 14,4 C14,5.1045695 13.1045695,6 12,6 C10.8954305,6 10,5.1045695 10,4 C10,2.8954305 10.8954305,2 12,2 Z" fill="#00FFFF"/>
        <path d="M4,8 C5.1045695,8 6,8.8954305 6,10 C6,11.1045695 5.1045695,12 4,12 C2.8954305,12 2,11.1045695 2,10 C2,8.8954305 2.8954305,8 4,8 Z" fill="#00FFFF"/>
        <path d="M20,8 C21.1045695,8 22,8.8954305 22,10 C22,11.1045695 21.1045695,12 20,12 C18.8954305,12 18,11.1045695 18,10 C18,8.8954305 18.8954305,8 20,8 Z" fill="#00FFFF"/>
        <path d="M12,18 C13.1045695,18 14,18.8954305 14,20 C14,21.1045695 13.1045695,22 12,22 C10.8954305,22 10,21.1045695 10,20 C10,18.8954305 10.8954305,18 12,18 Z" fill="#00FFFF"/>
        <path d="M4,14 C5.1045695,14 6,14.8954305 6,16 C6,17.1045695 5.1045695,18 4,18 C2.8954305,18 2,17.1045695 2,16 C2,14.8954305 2.8954305,14 4,14 Z" fill="#00FFFF"/>
        <path d="M20,14 C21.1045695,14 22,14.8954305 22,16 C22,17.1045695 21.1045695,18 20,18 C18.8954305,18 18,17.1045695 18,16 C18,14.8954305 18.8954305,14 20,14 Z" fill="#00FFFF"/>
        <path d="M12,6 L12,18" stroke="#00FFFF" stroke-width="2"/>
        <path d="M4,12 L20,12" stroke="#00FFFF" stroke-width="2"/>
        <path d="M6,10 L18,10" stroke="#00FFFF" stroke-width="2"/>
        <path d="M6,16 L18,16" stroke="#00FFFF" stroke-width="2"/>
    </g>
</svg> 